<?xml version="1.0" encoding="UTF-8"?>
<svg xmlns="http://www.w3.org/2000/svg" width="1500" height="760" viewBox="0 0 1500 760" role="img" aria-labelledby="title desc">
<title id="title">Hybrid IR 표준 증상 매칭 흐름</title>
<desc id="desc">LLM span을 표준 증상 목록 안에서 후보화하고 Nova Pro Linker가 최종 표준 증상을 확정하는 구조</desc>
<defs><marker id="arrow-blue" markerWidth="12" markerHeight="12" refX="10" refY="6" orient="auto"><path d="M2,2 L10,6 L2,10 Z" fill="#2563eb"/></marker>
<marker id="arrow-green" markerWidth="12" markerHeight="12" refX="10" refY="6" orient="auto"><path d="M2,2 L10,6 L2,10 Z" fill="#16a34a"/></marker>
<marker id="arrow-orange" markerWidth="12" markerHeight="12" refX="10" refY="6" orient="auto"><path d="M2,2 L10,6 L2,10 Z" fill="#f97316"/></marker>
<marker id="arrow-red" markerWidth="12" markerHeight="12" refX="10" refY="6" orient="auto"><path d="M2,2 L10,6 L2,10 Z" fill="#ef4444"/></marker>
<marker id="arrow-purple" markerWidth="12" markerHeight="12" refX="10" refY="6" orient="auto"><path d="M2,2 L10,6 L2,10 Z" fill="#8b5cf6"/></marker></defs>
<rect width="1500" height="760" fill="#f8fbff"/>
<text x="52" y="62" font-family="Noto Sans KR, Malgun Gothic, Segoe UI, sans-serif" font-size="34" font-weight="800" fill="#0f2347" text-anchor="start">
<tspan x="52" dy="0">Hybrid IR 표준 증상 매칭 흐름</tspan>
</text>
<text x="52" y="94" font-family="Noto Sans KR, Malgun Gothic, Segoe UI, sans-serif" font-size="17" font-weight="500" fill="#64748b" text-anchor="start">
<tspan x="52" dy="0">LLM 표현을 그대로 쓰지 않고, 표준 증상 목록 안에서 후보를 좁힌 뒤 최종 선택합니다.</tspan>
</text>
<rect x="70" y="190" width="270" height="145" rx="16" fill="#eff6ff" stroke="#2563eb" stroke-width="2"/>
<text x="94" y="228" font-family="Noto Sans KR, Malgun Gothic, Segoe UI, sans-serif" font-size="18" font-weight="800" fill="#0f2347" text-anchor="start">
<tspan x="94" dy="0">LLM 추출 span</tspan>
</text>
<text x="94" y="258" font-family="Noto Sans KR, Malgun Gothic, Segoe UI, sans-serif" font-size="13" font-weight="500" fill="#64748b" text-anchor="start">
<tspan x="94" dy="0">normalized_text</tspan>
</text>
<text x="94" y="283" font-family="Noto Sans KR, Malgun Gothic, Segoe UI, sans-serif" font-size="13" font-weight="500" fill="#64748b" text-anchor="start">
<tspan x="94" dy="0">symptom_hint</tspan>
</text>
<text x="94" y="308" font-family="Noto Sans KR, Malgun Gothic, Segoe UI, sans-serif" font-size="13" font-weight="500" fill="#64748b" text-anchor="start">
<tspan x="94" dy="0">status = active만 사용</tspan>
</text>
<rect x="70" y="425" width="270" height="130" rx="16" fill="#eff6ff" stroke="#2563eb" stroke-width="2"/>
<text x="94" y="463" font-family="Noto Sans KR, Malgun Gothic, Segoe UI, sans-serif" font-size="18" font-weight="800" fill="#0f2347" text-anchor="start">
<tspan x="94" dy="0">표준 증상 문서</tspan>
</text>
<text x="94" y="493" font-family="Noto Sans KR, Malgun Gothic, Segoe UI, sans-serif" font-size="13" font-weight="500" fill="#64748b" text-anchor="start">
<tspan x="94" dy="0">symptom_index</tspan>
</text>
<text x="94" y="518" font-family="Noto Sans KR, Malgun Gothic, Segoe UI, sans-serif" font-size="13" font-weight="500" fill="#64748b" text-anchor="start">
<tspan x="94" dy="0">diseases_cleaned 기반</tspan>
</text>
<rect x="430" y="150" width="230" height="110" rx="16" fill="#f5f3ff" stroke="#8b5cf6" stroke-width="2"/>
<text x="454" y="188" font-family="Noto Sans KR, Malgun Gothic, Segoe UI, sans-serif" font-size="18" font-weight="800" fill="#0f2347" text-anchor="start">
<tspan x="454" dy="0">BM25</tspan>
</text>
<text x="454" y="218" font-family="Noto Sans KR, Malgun Gothic, Segoe UI, sans-serif" font-size="13" font-weight="500" fill="#64748b" text-anchor="start">
<tspan x="454" dy="0">어휘 기반 검색</tspan>
</text>
<rect x="430" y="315" width="230" height="110" rx="16" fill="#f5f3ff" stroke="#8b5cf6" stroke-width="2"/>
<text x="454" y="353" font-family="Noto Sans KR, Malgun Gothic, Segoe UI, sans-serif" font-size="18" font-weight="800" fill="#0f2347" text-anchor="start">
<tspan x="454" dy="0">Titan Vector</tspan>
</text>
<text x="454" y="383" font-family="Noto Sans KR, Malgun Gothic, Segoe UI, sans-serif" font-size="13" font-weight="500" fill="#64748b" text-anchor="start">
<tspan x="454" dy="0">의미 기반 검색</tspan>
</text>
<rect x="430" y="480" width="230" height="110" rx="16" fill="#f5f3ff" stroke="#8b5cf6" stroke-width="2"/>
<text x="454" y="518" font-family="Noto Sans KR, Malgun Gothic, Segoe UI, sans-serif" font-size="18" font-weight="800" fill="#0f2347" text-anchor="start">
<tspan x="454" dy="0">Label Signal</tspan>
</text>
<text x="454" y="548" font-family="Noto Sans KR, Malgun Gothic, Segoe UI, sans-serif" font-size="13" font-weight="500" fill="#64748b" text-anchor="start">
<tspan x="454" dy="0">표준명 직접 일치 보존</tspan>
</text>
<rect x="750" y="315" width="240" height="120" rx="16" fill="#fffbeb" stroke="#f59e0b" stroke-width="2"/>
<text x="774" y="353" font-family="Noto Sans KR, Malgun Gothic, Segoe UI, sans-serif" font-size="18" font-weight="800" fill="#0f2347" text-anchor="start">
<tspan x="774" dy="0">RRF Ranking</tspan>
</text>
<text x="774" y="383" font-family="Noto Sans KR, Malgun Gothic, Segoe UI, sans-serif" font-size="13" font-weight="500" fill="#64748b" text-anchor="start">
<tspan x="774" dy="0">BM25 / Vector / Label</tspan>
</text>
<text x="774" y="408" font-family="Noto Sans KR, Malgun Gothic, Segoe UI, sans-serif" font-size="13" font-weight="500" fill="#64748b" text-anchor="start">
<tspan x="774" dy="0">순위 통합</tspan>
</text>
<rect x="1080" y="210" width="260" height="115" rx="16" fill="#f0fdf4" stroke="#16a34a" stroke-width="2"/>
<text x="1104" y="248" font-family="Noto Sans KR, Malgun Gothic, Segoe UI, sans-serif" font-size="18" font-weight="800" fill="#0f2347" text-anchor="start">
<tspan x="1104" dy="0">Top-20 후보</tspan>
</text>
<text x="1104" y="278" font-family="Noto Sans KR, Malgun Gothic, Segoe UI, sans-serif" font-size="13" font-weight="500" fill="#64748b" text-anchor="start">
<tspan x="1104" dy="0">표준 증상 후보만 전달</tspan>
</text>
<rect x="1080" y="385" width="260" height="125" rx="16" fill="#f0fdf4" stroke="#16a34a" stroke-width="2"/>
<text x="1104" y="423" font-family="Noto Sans KR, Malgun Gothic, Segoe UI, sans-serif" font-size="18" font-weight="800" fill="#0f2347" text-anchor="start">
<tspan x="1104" dy="0">Nova Pro Linker</tspan>
</text>
<text x="1104" y="453" font-family="Noto Sans KR, Malgun Gothic, Segoe UI, sans-serif" font-size="13" font-weight="500" fill="#64748b" text-anchor="start">
<tspan x="1104" dy="0">후보 안에서 선택</tspan>
</text>
<text x="1104" y="478" font-family="Noto Sans KR, Malgun Gothic, Segoe UI, sans-serif" font-size="13" font-weight="500" fill="#64748b" text-anchor="start">
<tspan x="1104" dy="0">불확실하면 no_match</tspan>
</text>
<rect x="1080" y="570" width="260" height="95" rx="16" fill="#f0fdf4" stroke="#16a34a" stroke-width="2"/>
<text x="1104" y="608" font-family="Noto Sans KR, Malgun Gothic, Segoe UI, sans-serif" font-size="18" font-weight="800" fill="#0f2347" text-anchor="start">
<tspan x="1104" dy="0">matched_slots</tspan>
</text>
<text x="1104" y="638" font-family="Noto Sans KR, Malgun Gothic, Segoe UI, sans-serif" font-size="13" font-weight="500" fill="#64748b" text-anchor="start">
<tspan x="1104" dy="0">원페이퍼 표준 증상</tspan>
</text>
<path d="M340 260 C380 260, 390 205, 430 205" stroke="#2563eb" stroke-width="2.4" fill="none" marker-end="url(#arrow-blue)"/>
<path d="M340 260 C390 260, 390 370, 430 370" stroke="#2563eb" stroke-width="2.4" fill="none" marker-end="url(#arrow-blue)"/>
<path d="M340 490 C385 490, 390 535, 430 535" stroke="#2563eb" stroke-width="2.4" fill="none" marker-end="url(#arrow-blue)"/>
<path d="M660 205 C715 205, 720 375, 750 375" stroke="#2563eb" stroke-width="2.4" fill="none" marker-end="url(#arrow-blue)"/>
<path d="M660 535 C715 535, 720 385, 750 385" stroke="#2563eb" stroke-width="2.4" fill="none" marker-end="url(#arrow-blue)"/>
<path d="M990 375 C1035 375, 1040 268, 1080 268" stroke="#2563eb" stroke-width="2.4" fill="none" marker-end="url(#arrow-blue)"/>
<line x1="660" y1="370" x2="750" y2="370" stroke="#2563eb" stroke-width="2.4" fill="none" marker-end="url(#arrow-blue)"/>
<line x1="1210" y1="325" x2="1210" y2="385" stroke="#2563eb" stroke-width="2.4" fill="none" marker-end="url(#arrow-blue)"/>
<line x1="1210" y1="510" x2="1210" y2="570" stroke="#2563eb" stroke-width="2.4" fill="none" marker-end="url(#arrow-blue)"/>
<rect x="70" y="625" width="760" height="70" rx="16" fill="#fff" stroke="#cbd5e1" stroke-width="2"/>
<text x="94" y="663" font-family="Noto Sans KR, Malgun Gothic, Segoe UI, sans-serif" font-size="18" font-weight="800" fill="#0f2347" text-anchor="start">
<tspan x="94" dy="0">표시 원칙</tspan>
</text>
<text x="94" y="693" font-family="Noto Sans KR, Malgun Gothic, Segoe UI, sans-serif" font-size="13" font-weight="500" fill="#64748b" text-anchor="start">
<tspan x="94" dy="0">UI에는 보정 점수 대신 &#x27;매칭됨&#x27; 상태를 표시합니다. 숫자는 평가와 디버깅 산출물에서만 사용합니다.</tspan>
</text>
</svg>
