<svg xmlns="http://www.w3.org/2000/svg" width="1600" height="980" viewBox="0 0 1600 980">
  <defs>
    <marker id="arrow" markerWidth="10" markerHeight="10" refX="9" refY="3" orient="auto" markerUnits="strokeWidth">
      <path d="M0,0 L0,6 L9,3 z" fill="#334155" />
    </marker>
    <style>
      .title { font: 700 30px Arial, sans-serif; fill: #111827; }
      .subtitle { font: 400 15px Arial, sans-serif; fill: #4b5563; }
      .section { font: 700 18px Arial, sans-serif; fill: #232f3e; }
      .label { font: 700 14px Arial, sans-serif; fill: #111827; }
      .small { font: 400 12px Arial, sans-serif; fill: #374151; }
      .tiny { font: 400 11px Arial, sans-serif; fill: #475569; }
      .icon { font: 700 20px Arial, sans-serif; fill: #ffffff; text-anchor: middle; dominant-baseline: middle; }
      .line { stroke: #334155; stroke-width: 2; fill: none; marker-end: url(#arrow); }
      .dash { stroke-dasharray: 6 5; }
    </style>
  </defs>

  <rect x="0" y="0" width="1600" height="980" fill="#ffffff" />
  <text x="800" y="48" text-anchor="middle" class="title">문진톡톡 MVP AWS 아키텍처</text>
  <text x="800" y="78" text-anchor="middle" class="subtitle">직원 접수 → 환자 태블릿 음성 문진 → STT → Bedrock 구조화 → 의사 원페이퍼 → 환자 안내문</text>

  <rect x="270" y="120" width="1280" height="800" fill="#ffffff" stroke="#4b5563" stroke-width="2" />
  <text x="300" y="155" class="section">AWS Cloud</text>

  <text x="120" y="355" text-anchor="middle" class="section">사용자</text>
  <circle cx="120" cy="410" r="28" fill="#ffffff" stroke="#111827" stroke-width="4" />
  <circle cx="85" cy="470" r="24" fill="#ffffff" stroke="#111827" stroke-width="4" />
  <circle cx="155" cy="470" r="24" fill="#ffffff" stroke="#111827" stroke-width="4" />
  <text x="120" y="535" text-anchor="middle" class="label">직원 · 환자 · 의료진</text>

  <rect x="350" y="40" width="250" height="75" rx="8" fill="#f8fafc" stroke="#334155" />
  <text x="475" y="68" text-anchor="middle" class="label">GitHub</text>
  <text x="475" y="91" text-anchor="middle" class="small">CHOIGIBUM/munjin-talk-talk-mvp</text>

  <rect x="360" y="210" width="96" height="96" fill="#8b5cf6" stroke="#6d28d9" />
  <text x="408" y="258" class="icon">Amplify</text>
  <text x="408" y="333" text-anchor="middle" class="label">AWS Amplify Hosting</text>
  <text x="408" y="354" text-anchor="middle" class="small">React + Vite 정적 웹 앱</text>
  <text x="408" y="374" text-anchor="middle" class="small">HTTPS / SPA rewrite</text>

  <rect x="330" y="430" width="225" height="155" rx="8" fill="#f5f3ff" stroke="#8b5cf6" />
  <text x="442" y="458" text-anchor="middle" class="label">프론트 화면</text>
  <text x="442" y="482" text-anchor="middle" class="small">/staff 직원 접수</text>
  <text x="442" y="504" text-anchor="middle" class="small">/patient/{sessionId} 환자 태블릿</text>
  <text x="442" y="526" text-anchor="middle" class="small">/doctor/queue 의사 대기열</text>
  <text x="442" y="548" text-anchor="middle" class="small">/doctor/{sessionId} 원페이퍼</text>
  <text x="442" y="570" text-anchor="middle" class="small">/guide/{sessionId} 안내문</text>

  <rect x="610" y="330" width="96" height="96" fill="#ec4899" stroke="#be185d" />
  <text x="658" y="378" class="icon">API</text>
  <text x="658" y="455" text-anchor="middle" class="label">API Gateway HTTP API</text>
  <text x="658" y="477" text-anchor="middle" class="small">세션 / 업로드 URL / STT 조회</text>
  <text x="658" y="497" text-anchor="middle" class="small">추출 · 매칭 · 검증 / 원페이퍼</text>

  <circle cx="895" cy="378" r="58" fill="#f97316" stroke="#c2410c" stroke-width="2" />
  <text x="895" y="380" class="icon" style="font-size:48px">λ</text>
  <text x="895" y="465" text-anchor="middle" class="label">AWS Lambda Python 3.12</text>
  <text x="895" y="487" text-anchor="middle" class="small">문진 오케스트레이션</text>
  <text x="895" y="507" text-anchor="middle" class="small">Bedrock 호출 / 검증 / 저장</text>

  <rect x="835" y="570" width="245" height="78" rx="8" fill="#fff1f2" stroke="#e11d48" />
  <text x="957" y="598" text-anchor="middle" class="label">애플리케이션 검증 계층</text>
  <text x="957" y="621" text-anchor="middle" class="small">rule fallback off / 원문 quote 검증</text>
  <text x="957" y="641" text-anchor="middle" class="small">진단 · 처방 출력 금지</text>

  <rect x="625" y="650" width="96" height="96" fill="#ef4444" stroke="#b91c1c" />
  <text x="673" y="698" class="icon">IAM</text>
  <text x="673" y="775" text-anchor="middle" class="label">Lambda 실행 역할</text>
  <text x="673" y="797" text-anchor="middle" class="small">S3 / DynamoDB / Transcribe / Bedrock 권한</text>

  <rect x="1130" y="190" width="105" height="105" fill="#16a34a" stroke="#15803d" />
  <text x="1182" y="243" class="icon" style="font-size:28px">S3</text>
  <text x="1182" y="323" text-anchor="middle" class="label">Amazon S3</text>
  <text x="1182" y="345" text-anchor="middle" class="small">음성 파일 / 전사 결과 JSON</text>
  <text x="1182" y="365" text-anchor="middle" class="small">Amplify 도메인 CORS 허용</text>

  <rect x="1360" y="190" width="105" height="105" fill="#0891b2" stroke="#0e7490" />
  <text x="1412" y="243" class="icon" style="font-size:26px">STT</text>
  <text x="1412" y="323" text-anchor="middle" class="label">Amazon Transcribe</text>
  <text x="1412" y="345" text-anchor="middle" class="small">한국어 음성 전사</text>
  <text x="1412" y="365" text-anchor="middle" class="small">환자 확인용 transcript 생성</text>

  <rect x="1360" y="455" width="105" height="105" fill="#db2777" stroke="#be185d" />
  <text x="1412" y="508" class="icon" style="font-size:17px">Bedrock</text>
  <text x="1412" y="588" text-anchor="middle" class="label">Amazon Bedrock</text>
  <text x="1412" y="610" text-anchor="middle" class="small">Nova Pro / Nova Lite</text>
  <text x="1412" y="630" text-anchor="middle" class="small">의미 분할 · 표준화 · 검토</text>

  <rect x="1130" y="680" width="105" height="105" fill="#2563eb" stroke="#1d4ed8" />
  <text x="1182" y="733" class="icon" style="font-size:28px">DB</text>
  <text x="1182" y="813" text-anchor="middle" class="label">DynamoDB</text>
  <text x="1182" y="835" text-anchor="middle" class="small">MunjinSessions</text>
  <text x="1182" y="855" text-anchor="middle" class="small">세션 / 순번 / 원페이퍼 / 답변 저장</text>

  <rect x="1360" y="680" width="105" height="105" fill="#475569" stroke="#334155" />
  <text x="1412" y="733" class="icon" style="font-size:20px">Logs</text>
  <text x="1412" y="813" text-anchor="middle" class="label">CloudWatch Logs</text>
  <text x="1412" y="835" text-anchor="middle" class="small">Lambda 실행 로그</text>
  <text x="1412" y="855" text-anchor="middle" class="small">오류 추적</text>

  <rect x="360" y="680" width="255" height="90" rx="8" fill="#fefce8" stroke="#ca8a04" stroke-dasharray="7 5" />
  <text x="488" y="713" text-anchor="middle" class="label">운영 전 추가 권장</text>
  <text x="488" y="738" text-anchor="middle" class="small">Cognito 또는 내부망/VPN으로</text>
  <text x="488" y="760" text-anchor="middle" class="small">직원 · 의사 화면 보호</text>

  <line x1="475" y1="115" x2="418" y2="210" class="line" />
  <text x="454" y="168" class="tiny">자동 배포</text>
  <line x1="170" y1="455" x2="360" y2="258" class="line" />
  <text x="250" y="335" class="tiny">HTTPS 접속</text>
  <line x1="456" y1="258" x2="610" y2="378" class="line" />
  <text x="528" y="295" class="tiny">API 호출</text>
  <line x1="706" y1="378" x2="837" y2="378" class="line" />
  <text x="758" y="365" class="tiny">Invoke</text>
  <path d="M555 508 C720 480, 950 315, 1130 243" class="line" />
  <text x="790" y="420" class="tiny">presigned URL로 음성 PUT</text>
  <line x1="953" y1="350" x2="1130" y2="260" class="line" />
  <text x="1000" y="292" class="tiny">업로드 URL / 결과 읽기</text>
  <line x1="953" y1="365" x2="1360" y2="243" class="line" />
  <text x="1140" y="292" class="tiny">작업 시작·조회</text>
  <line x1="1360" y1="230" x2="1235" y2="230" class="line dash" />
  <text x="1285" y="215" class="tiny">전사 결과 저장</text>
  <line x1="945" y1="425" x2="1360" y2="505" class="line" />
  <text x="1162" y="450" class="tiny">모델 호출</text>
  <line x1="920" y1="435" x2="1130" y2="705" class="line" />
  <text x="1035" y="585" class="tiny">세션 저장</text>
  <line x1="936" y1="432" x2="1360" y2="705" class="line" />
  <text x="1180" y="625" class="tiny">로그</text>
  <line x1="721" y1="690" x2="848" y2="432" class="line dash" />
  <text x="746" y="560" class="tiny">실행 권한</text>
</svg>
